# xmcd
#
# Track frame offsets:
#	150
#	20270
#	40194
#	57403
#	83975
#	102193
#	125426
#	147999
#	174473
#	199655
#
# Disc length: 3022 seconds
#
# Revision: 1
# Processed by: cddbd v1.5.2PL0 Copyright (c) Steve Scherf et al.
# Submitted via: EZCDAudioConverter 8.0.2.1
#
DISCID=830bcc0a
DTITLE=Dạ Nhật Yến, Xuân Phú - Em Cứ Đi
DYEAR=2011
DGENRE=Contemporary Pop
TTITLE0=Dạ Nhật Yến - Phố xưa
TTITLE1=Xuân Phú - Cô đơn
TTITLE2=Dạ Nhật Yến - Cơn gió thoảng
TTITLE3=Xuân Phú - Riêng một góc trời
TTITLE4=Dạ Nhật Yến - Dĩ vãng nhạt nhòa
TTITLE5=Xuân Phú - Tình cha
TTITLE6=Dạ Nhật Yến - Mưa ngâu
TTITLE7=Xuân Phú - Ta chẳng còn ai
TTITLE8=Dạ Nhật Yến - Em Cứ Đi
TTITLE9=Xuân Phú - Khi biết yêu thương
EXTD=
EXTT0=
EXTT1=
EXTT2=
EXTT3=
EXTT4=
EXTT5=
EXTT6=
EXTT7=
EXTT8=
EXTT9=
PLAYORDER=
